<svg xmlns="http://www.w3.org/2000/svg" viewBox="0 0 560 300" width="560" height="300" font-family="ui-monospace,SFMono-Regular,Menlo,Consolas,monospace" role="img" aria-label="Median time to first token against a mock upstream, log scale">
<line x1="58" y1="264.0" x2="542" y2="264.0" stroke="#D3DEDE" stroke-width="1"/>
<text x="49" y="267.5" text-anchor="end" font-size="10" fill="#7B8D90">8.5</text>
<line x1="58" y1="202.5" x2="542" y2="202.5" stroke="#D3DEDE" stroke-width="1"/>
<text x="49" y="206.0" text-anchor="end" font-size="10" fill="#7B8D90">29.8</text>
<line x1="58" y1="141.0" x2="542" y2="141.0" stroke="#D3DEDE" stroke-width="1"/>
<text x="49" y="144.5" text-anchor="end" font-size="10" fill="#7B8D90">105</text>
<line x1="58" y1="79.5" x2="542" y2="79.5" stroke="#D3DEDE" stroke-width="1"/>
<text x="49" y="83.0" text-anchor="end" font-size="10" fill="#7B8D90">372</text>
<line x1="58" y1="18.0" x2="542" y2="18.0" stroke="#D3DEDE" stroke-width="1"/>
<text x="49" y="21.5" text-anchor="end" font-size="10" fill="#7B8D90">1,313</text>
<text x="58.0" y="281" text-anchor="middle" font-size="10" fill="#7B8D90">1</text>
<text x="138.7" y="281" text-anchor="middle" font-size="10" fill="#7B8D90">2</text>
<text x="219.3" y="281" text-anchor="middle" font-size="10" fill="#7B8D90">4</text>
<text x="300.0" y="281" text-anchor="middle" font-size="10" fill="#7B8D90">8</text>
<text x="380.7" y="281" text-anchor="middle" font-size="10" fill="#7B8D90">16</text>
<text x="461.3" y="281" text-anchor="middle" font-size="10" fill="#7B8D90">32</text>
<text x="508.5" y="281" text-anchor="middle" font-size="10" fill="#7B8D90">48</text>
<text x="542.0" y="281" text-anchor="middle" font-size="10" fill="#7B8D90">64</text>
<text x="280" y="296" text-anchor="middle" font-size="10" fill="#7B8D90">concurrent streams</text>
<text x="12" y="132" font-size="10" fill="#7B8D90" transform="rotate(-90 12 132)" text-anchor="middle">TTFT p50 (ms)</text>
<path d="M58.0,264.0 L138.7,261.3 L219.3,254.9 L300.0,246.0 L380.7,230.5 L461.3,216.2 L508.5,201.3 L542.0,181.5" fill="none" stroke="#0F8C79" stroke-width="2" stroke-linejoin="round" stroke-linecap="round"/>
<circle cx="58.0" cy="264.0" r="2.6" fill="#0F8C79"/>
<circle cx="138.7" cy="261.3" r="2.6" fill="#0F8C79"/>
<circle cx="219.3" cy="254.9" r="2.6" fill="#0F8C79"/>
<circle cx="300.0" cy="246.0" r="2.6" fill="#0F8C79"/>
<circle cx="380.7" cy="230.5" r="2.6" fill="#0F8C79"/>
<circle cx="461.3" cy="216.2" r="2.6" fill="#0F8C79"/>
<circle cx="508.5" cy="201.3" r="2.6" fill="#0F8C79"/>
<circle cx="542.0" cy="181.5" r="2.6" fill="#0F8C79"/>
<path d="M58.0,150.2 L138.7,154.0 L219.3,151.7 L300.0,83.6 L380.7,79.4 L461.3,48.6 L508.5,27.8 L542.0,18.0" fill="none" stroke="#B4652C" stroke-width="2" stroke-linejoin="round" stroke-linecap="round"/>
<circle cx="58.0" cy="150.2" r="2.6" fill="#B4652C"/>
<circle cx="138.7" cy="154.0" r="2.6" fill="#B4652C"/>
<circle cx="219.3" cy="151.7" r="2.6" fill="#B4652C"/>
<circle cx="300.0" cy="83.6" r="2.6" fill="#B4652C"/>
<circle cx="380.7" cy="79.4" r="2.6" fill="#B4652C"/>
<circle cx="461.3" cy="48.6" r="2.6" fill="#B4652C"/>
<circle cx="508.5" cy="27.8" r="2.6" fill="#B4652C"/>
<circle cx="542.0" cy="18.0" r="2.6" fill="#B4652C"/>
<rect x="62" y="18" width="14" height="3" rx="1.5" fill="#0F8C79"/>
<text x="82" y="22" font-size="10" fill="#7B8D90">fastllm-proxy</text>
<rect x="62" y="33" width="14" height="3" rx="1.5" fill="#B4652C"/>
<text x="82" y="37" font-size="10" fill="#7B8D90">LiteLLM</text>
</svg>